<svg width="14" height="14" viewBox="0 0 14 14" fill="none" xmlns="http://www.w3.org/2000/svg">
<path fill-rule="evenodd" clip-rule="evenodd" d="M4.66667 2.33332H9.33333V1.16666H10.5V2.33332H11.0833C11.3928 2.33332 11.6895 2.45624 11.9083 2.67503C12.1271 2.89382 12.25 3.19057 12.25 3.49999V11.6667C12.25 11.9761 12.1271 12.2728 11.9083 12.4916C11.6895 12.7104 11.3928 12.8333 11.0833 12.8333H2.91667C2.60725 12.8333 2.3105 12.7104 2.09171 12.4916C1.87292 12.2728 1.75 11.9761 1.75 11.6667V3.49999C1.75 3.19057 1.87292 2.89382 2.09171 2.67503C2.3105 2.45624 2.60725 2.33332 2.91667 2.33332H3.5V1.16666H4.66667V2.33332ZM2.91667 4.66666V11.6667H11.0833V4.66666H2.91667ZM4.08333 6.41666H5.25V7.58332H4.08333V6.41666ZM6.41667 6.41666H7.58333V7.58332H6.41667V6.41666ZM8.75 6.41666H9.91667V7.58332H8.75V6.41666ZM8.75 8.74999H9.91667V9.91666H8.75V8.74999ZM6.41667 8.74999H7.58333V9.91666H6.41667V8.74999ZM4.08333 8.74999H5.25V9.91666H4.08333V8.74999Z" fill="#6C6C6C"/>
</svg>
